<mxfile host="app.diagrams.net" modified="2023-06-09T01:49:00.022Z" agent="Mozilla/5.0 (Macintosh; Intel Mac OS X 10_15_7) AppleWebKit/537.36 (KHTML, like Gecko) Chrome/114.0.0.0 Safari/537.36" etag="jzzCW9CRWttIldbVp2aN" version="21.3.8" type="github">
  <diagram id="C5RBs43oDa-KdzZeNtuy" name="Page-1">
    <mxGraphModel dx="3027" dy="1195" grid="1" gridSize="10" guides="1" tooltips="1" connect="1" arrows="1" fold="1" page="1" pageScale="1" pageWidth="120000" pageHeight="160000" math="0" shadow="0">
      <root>
        <mxCell id="WIyWlLk6GJQsqaUBKTNV-0" />
        <mxCell id="WIyWlLk6GJQsqaUBKTNV-1" parent="WIyWlLk6GJQsqaUBKTNV-0" />
        <mxCell id="3_1_JiswwGQ6XDFufu0A-0" value="" style="rounded=1;whiteSpace=wrap;html=1;" vertex="1" parent="WIyWlLk6GJQsqaUBKTNV-1">
          <mxGeometry x="790" y="320" width="390" height="350" as="geometry" />
        </mxCell>
        <mxCell id="3_1_JiswwGQ6XDFufu0A-1" value="VDFController" style="text;html=1;strokeColor=none;fillColor=none;align=center;verticalAlign=middle;whiteSpace=wrap;rounded=0;fontFamily=Georgia;fontSize=20;" vertex="1" parent="WIyWlLk6GJQsqaUBKTNV-1">
          <mxGeometry x="905" y="320" width="160" height="50" as="geometry" />
        </mxCell>
        <mxCell id="3_1_JiswwGQ6XDFufu0A-7" value="&lt;font style=&quot;font-size: 16px;&quot; face=&quot;Georgia&quot;&gt;- pubKey:VDFPubkey&lt;/font&gt;" style="text;strokeColor=none;fillColor=none;align=left;verticalAlign=middle;spacingLeft=4;spacingRight=4;overflow=hidden;points=[[0,0.5],[1,0.5]];portConstraint=eastwest;rotatable=0;whiteSpace=wrap;html=1;" vertex="1" parent="WIyWlLk6GJQsqaUBKTNV-1">
          <mxGeometry x="810" y="390" width="180" height="30" as="geometry" />
        </mxCell>
        <mxCell id="3_1_JiswwGQ6XDFufu0A-8" value="&lt;font style=&quot;font-size: 16px;&quot; face=&quot;Georgia&quot;&gt;- secretKey: VDFSkey&lt;/font&gt;" style="text;strokeColor=none;fillColor=none;align=left;verticalAlign=middle;spacingLeft=4;spacingRight=4;overflow=hidden;points=[[0,0.5],[1,0.5]];portConstraint=eastwest;rotatable=0;whiteSpace=wrap;html=1;" vertex="1" parent="WIyWlLk6GJQsqaUBKTNV-1">
          <mxGeometry x="810" y="420" width="170" height="30" as="geometry" />
        </mxCell>
        <mxCell id="3_1_JiswwGQ6XDFufu0A-9" value="&lt;font style=&quot;font-size: 16px;&quot; face=&quot;Georgia&quot;&gt;- setup(securityParams): VDFPubK&lt;/font&gt;" style="text;strokeColor=none;fillColor=none;align=left;verticalAlign=middle;spacingLeft=4;spacingRight=4;overflow=hidden;points=[[0,0.5],[1,0.5]];portConstraint=eastwest;rotatable=0;whiteSpace=wrap;html=1;" vertex="1" parent="WIyWlLk6GJQsqaUBKTNV-1">
          <mxGeometry x="810" y="470" width="290" height="30" as="geometry" />
        </mxCell>
        <mxCell id="3_1_JiswwGQ6XDFufu0A-10" value="&lt;font style=&quot;font-size: 16px;&quot; face=&quot;Georgia&quot;&gt;- trapdoor(x): VDFOutProof&lt;/font&gt;" style="text;strokeColor=none;fillColor=none;align=left;verticalAlign=middle;spacingLeft=4;spacingRight=4;overflow=hidden;points=[[0,0.5],[1,0.5]];portConstraint=eastwest;rotatable=0;whiteSpace=wrap;html=1;" vertex="1" parent="WIyWlLk6GJQsqaUBKTNV-1">
          <mxGeometry x="810" y="510" width="290" height="30" as="geometry" />
        </mxCell>
        <mxCell id="3_1_JiswwGQ6XDFufu0A-11" value="&lt;font style=&quot;font-size: 16px;&quot; face=&quot;Georgia&quot;&gt;- evaluation(x): VDFOutProof&lt;/font&gt;" style="text;strokeColor=none;fillColor=none;align=left;verticalAlign=middle;spacingLeft=4;spacingRight=4;overflow=hidden;points=[[0,0.5],[1,0.5]];portConstraint=eastwest;rotatable=0;whiteSpace=wrap;html=1;" vertex="1" parent="WIyWlLk6GJQsqaUBKTNV-1">
          <mxGeometry x="810" y="550" width="290" height="30" as="geometry" />
        </mxCell>
        <mxCell id="3_1_JiswwGQ6XDFufu0A-12" value="&lt;font style=&quot;font-size: 16px;&quot; face=&quot;Georgia&quot;&gt;- verify(x, y, proof)&lt;/font&gt;" style="text;strokeColor=none;fillColor=none;align=left;verticalAlign=middle;spacingLeft=4;spacingRight=4;overflow=hidden;points=[[0,0.5],[1,0.5]];portConstraint=eastwest;rotatable=0;whiteSpace=wrap;html=1;" vertex="1" parent="WIyWlLk6GJQsqaUBKTNV-1">
          <mxGeometry x="810" y="590" width="290" height="30" as="geometry" />
        </mxCell>
        <mxCell id="3_1_JiswwGQ6XDFufu0A-29" value="" style="rounded=1;whiteSpace=wrap;html=1;" vertex="1" parent="WIyWlLk6GJQsqaUBKTNV-1">
          <mxGeometry x="1370" y="315" width="390" height="360" as="geometry" />
        </mxCell>
        <mxCell id="3_1_JiswwGQ6XDFufu0A-30" value="VDFCoordinator" style="text;html=1;strokeColor=none;fillColor=none;align=center;verticalAlign=middle;whiteSpace=wrap;rounded=0;fontFamily=Georgia;fontSize=20;" vertex="1" parent="WIyWlLk6GJQsqaUBKTNV-1">
          <mxGeometry x="1485" y="315" width="160" height="50" as="geometry" />
        </mxCell>
        <mxCell id="3_1_JiswwGQ6XDFufu0A-31" value="&lt;font style=&quot;font-size: 16px;&quot; face=&quot;Georgia&quot;&gt;- delta: Integer&lt;/font&gt;" style="text;strokeColor=none;fillColor=none;align=left;verticalAlign=middle;spacingLeft=4;spacingRight=4;overflow=hidden;points=[[0,0.5],[1,0.5]];portConstraint=eastwest;rotatable=0;whiteSpace=wrap;html=1;" vertex="1" parent="WIyWlLk6GJQsqaUBKTNV-1">
          <mxGeometry x="1390" y="385" width="180" height="30" as="geometry" />
        </mxCell>
        <mxCell id="3_1_JiswwGQ6XDFufu0A-32" value="&lt;font style=&quot;font-size: 16px;&quot; face=&quot;Georgia&quot;&gt;- threshold: Integer&lt;/font&gt;" style="text;strokeColor=none;fillColor=none;align=left;verticalAlign=middle;spacingLeft=4;spacingRight=4;overflow=hidden;points=[[0,0.5],[1,0.5]];portConstraint=eastwest;rotatable=0;whiteSpace=wrap;html=1;" vertex="1" parent="WIyWlLk6GJQsqaUBKTNV-1">
          <mxGeometry x="1390" y="415" width="170" height="30" as="geometry" />
        </mxCell>
        <mxCell id="3_1_JiswwGQ6XDFufu0A-33" value="&lt;font style=&quot;font-size: 16px;&quot; face=&quot;Georgia&quot;&gt;- setDelta(delta)&lt;/font&gt;" style="text;strokeColor=none;fillColor=none;align=left;verticalAlign=middle;spacingLeft=4;spacingRight=4;overflow=hidden;points=[[0,0.5],[1,0.5]];portConstraint=eastwest;rotatable=0;whiteSpace=wrap;html=1;" vertex="1" parent="WIyWlLk6GJQsqaUBKTNV-1">
          <mxGeometry x="1390" y="475" width="290" height="30" as="geometry" />
        </mxCell>
        <mxCell id="3_1_JiswwGQ6XDFufu0A-34" value="&lt;font style=&quot;font-size: 16px;&quot; face=&quot;Georgia&quot;&gt;- setThreshold(threshold)&lt;/font&gt;" style="text;strokeColor=none;fillColor=none;align=left;verticalAlign=middle;spacingLeft=4;spacingRight=4;overflow=hidden;points=[[0,0.5],[1,0.5]];portConstraint=eastwest;rotatable=0;whiteSpace=wrap;html=1;" vertex="1" parent="WIyWlLk6GJQsqaUBKTNV-1">
          <mxGeometry x="1390" y="515" width="370" height="30" as="geometry" />
        </mxCell>
        <mxCell id="3_1_JiswwGQ6XDFufu0A-35" value="&lt;font style=&quot;font-size: 16px;&quot; face=&quot;Georgia&quot;&gt;- computeCommit(nonce): Commit&lt;/font&gt;" style="text;strokeColor=none;fillColor=none;align=left;verticalAlign=middle;spacingLeft=4;spacingRight=4;overflow=hidden;points=[[0,0.5],[1,0.5]];portConstraint=eastwest;rotatable=0;whiteSpace=wrap;html=1;" vertex="1" parent="WIyWlLk6GJQsqaUBKTNV-1">
          <mxGeometry x="1390" y="555" width="290" height="30" as="geometry" />
        </mxCell>
        <mxCell id="3_1_JiswwGQ6XDFufu0A-36" value="&lt;font style=&quot;font-size: 16px;&quot; face=&quot;Georgia&quot;&gt;- getAuthRoles(): AccountId[]&lt;/font&gt;" style="text;strokeColor=none;fillColor=none;align=left;verticalAlign=middle;spacingLeft=4;spacingRight=4;overflow=hidden;points=[[0,0.5],[1,0.5]];portConstraint=eastwest;rotatable=0;whiteSpace=wrap;html=1;" vertex="1" parent="WIyWlLk6GJQsqaUBKTNV-1">
          <mxGeometry x="1390" y="595" width="290" height="30" as="geometry" />
        </mxCell>
        <mxCell id="3_1_JiswwGQ6XDFufu0A-37" value="" style="rounded=1;whiteSpace=wrap;html=1;" vertex="1" parent="WIyWlLk6GJQsqaUBKTNV-1">
          <mxGeometry x="1190" y="820" width="390" height="300" as="geometry" />
        </mxCell>
        <mxCell id="3_1_JiswwGQ6XDFufu0A-38" value="VDFAuthenticator" style="text;html=1;strokeColor=none;fillColor=none;align=center;verticalAlign=middle;whiteSpace=wrap;rounded=0;fontFamily=Georgia;fontSize=20;" vertex="1" parent="WIyWlLk6GJQsqaUBKTNV-1">
          <mxGeometry x="1305" y="820" width="160" height="50" as="geometry" />
        </mxCell>
        <mxCell id="3_1_JiswwGQ6XDFufu0A-39" value="&lt;font style=&quot;font-size: 16px;&quot; face=&quot;Georgia&quot;&gt;- roles: AccountId[]&lt;/font&gt;" style="text;strokeColor=none;fillColor=none;align=left;verticalAlign=middle;spacingLeft=4;spacingRight=4;overflow=hidden;points=[[0,0.5],[1,0.5]];portConstraint=eastwest;rotatable=0;whiteSpace=wrap;html=1;" vertex="1" parent="WIyWlLk6GJQsqaUBKTNV-1">
          <mxGeometry x="1210" y="890" width="180" height="30" as="geometry" />
        </mxCell>
        <mxCell id="3_1_JiswwGQ6XDFufu0A-41" value="&lt;font style=&quot;font-size: 16px;&quot; face=&quot;Georgia&quot;&gt;- authenticate(): bool&lt;/font&gt;" style="text;strokeColor=none;fillColor=none;align=left;verticalAlign=middle;spacingLeft=4;spacingRight=4;overflow=hidden;points=[[0,0.5],[1,0.5]];portConstraint=eastwest;rotatable=0;whiteSpace=wrap;html=1;" vertex="1" parent="WIyWlLk6GJQsqaUBKTNV-1">
          <mxGeometry x="1210" y="960" width="290" height="30" as="geometry" />
        </mxCell>
        <mxCell id="3_1_JiswwGQ6XDFufu0A-42" value="&lt;font style=&quot;font-size: 16px;&quot; face=&quot;Georgia&quot;&gt;- addRoles(newRoles)&lt;/font&gt;" style="text;strokeColor=none;fillColor=none;align=left;verticalAlign=middle;spacingLeft=4;spacingRight=4;overflow=hidden;points=[[0,0.5],[1,0.5]];portConstraint=eastwest;rotatable=0;whiteSpace=wrap;html=1;" vertex="1" parent="WIyWlLk6GJQsqaUBKTNV-1">
          <mxGeometry x="1210" y="1000" width="290" height="30" as="geometry" />
        </mxCell>
        <mxCell id="3_1_JiswwGQ6XDFufu0A-43" value="&lt;font style=&quot;font-size: 16px;&quot; face=&quot;Georgia&quot;&gt;- deleteRoles(delRoles)&lt;/font&gt;" style="text;strokeColor=none;fillColor=none;align=left;verticalAlign=middle;spacingLeft=4;spacingRight=4;overflow=hidden;points=[[0,0.5],[1,0.5]];portConstraint=eastwest;rotatable=0;whiteSpace=wrap;html=1;" vertex="1" parent="WIyWlLk6GJQsqaUBKTNV-1">
          <mxGeometry x="1210" y="1040" width="290" height="30" as="geometry" />
        </mxCell>
        <mxCell id="3_1_JiswwGQ6XDFufu0A-45" value="" style="rounded=1;whiteSpace=wrap;html=1;" vertex="1" parent="WIyWlLk6GJQsqaUBKTNV-1">
          <mxGeometry x="382.5" y="220" width="230" height="140" as="geometry" />
        </mxCell>
        <mxCell id="3_1_JiswwGQ6XDFufu0A-46" value="RSAPubKey" style="text;html=1;strokeColor=none;fillColor=none;align=center;verticalAlign=middle;whiteSpace=wrap;rounded=0;fontFamily=Georgia;fontSize=20;" vertex="1" parent="WIyWlLk6GJQsqaUBKTNV-1">
          <mxGeometry x="417.5" y="220" width="160" height="50" as="geometry" />
        </mxCell>
        <mxCell id="3_1_JiswwGQ6XDFufu0A-47" value="&lt;font style=&quot;font-size: 16px;&quot; face=&quot;Georgia&quot;&gt;- N: Integer&lt;/font&gt;" style="text;strokeColor=none;fillColor=none;align=left;verticalAlign=middle;spacingLeft=4;spacingRight=4;overflow=hidden;points=[[0,0.5],[1,0.5]];portConstraint=eastwest;rotatable=0;whiteSpace=wrap;html=1;" vertex="1" parent="WIyWlLk6GJQsqaUBKTNV-1">
          <mxGeometry x="402.5" y="280" width="180" height="30" as="geometry" />
        </mxCell>
        <mxCell id="3_1_JiswwGQ6XDFufu0A-53" value="" style="rounded=1;whiteSpace=wrap;html=1;" vertex="1" parent="WIyWlLk6GJQsqaUBKTNV-1">
          <mxGeometry x="417.5" y="440" width="230" height="80" as="geometry" />
        </mxCell>
        <mxCell id="3_1_JiswwGQ6XDFufu0A-54" value="VDFPubKey" style="text;html=1;strokeColor=none;fillColor=none;align=center;verticalAlign=middle;whiteSpace=wrap;rounded=0;fontFamily=Georgia;fontSize=20;" vertex="1" parent="WIyWlLk6GJQsqaUBKTNV-1">
          <mxGeometry x="452.5" y="440" width="160" height="50" as="geometry" />
        </mxCell>
        <mxCell id="3_1_JiswwGQ6XDFufu0A-56" value="" style="rounded=1;whiteSpace=wrap;html=1;" vertex="1" parent="WIyWlLk6GJQsqaUBKTNV-1">
          <mxGeometry x="400" y="660" width="230" height="170" as="geometry" />
        </mxCell>
        <mxCell id="3_1_JiswwGQ6XDFufu0A-57" value="RSASkey" style="text;html=1;strokeColor=none;fillColor=none;align=center;verticalAlign=middle;whiteSpace=wrap;rounded=0;fontFamily=Georgia;fontSize=20;" vertex="1" parent="WIyWlLk6GJQsqaUBKTNV-1">
          <mxGeometry x="435" y="660" width="160" height="50" as="geometry" />
        </mxCell>
        <mxCell id="3_1_JiswwGQ6XDFufu0A-58" value="&lt;font style=&quot;font-size: 16px;&quot; face=&quot;Georgia&quot;&gt;- p: Integer&lt;/font&gt;" style="text;strokeColor=none;fillColor=none;align=left;verticalAlign=middle;spacingLeft=4;spacingRight=4;overflow=hidden;points=[[0,0.5],[1,0.5]];portConstraint=eastwest;rotatable=0;whiteSpace=wrap;html=1;" vertex="1" parent="WIyWlLk6GJQsqaUBKTNV-1">
          <mxGeometry x="420" y="720" width="180" height="30" as="geometry" />
        </mxCell>
        <mxCell id="3_1_JiswwGQ6XDFufu0A-59" value="" style="rounded=1;whiteSpace=wrap;html=1;" vertex="1" parent="WIyWlLk6GJQsqaUBKTNV-1">
          <mxGeometry x="365" y="920" width="230" height="80" as="geometry" />
        </mxCell>
        <mxCell id="3_1_JiswwGQ6XDFufu0A-60" value="VDFSkey" style="text;html=1;strokeColor=none;fillColor=none;align=center;verticalAlign=middle;whiteSpace=wrap;rounded=0;fontFamily=Georgia;fontSize=20;" vertex="1" parent="WIyWlLk6GJQsqaUBKTNV-1">
          <mxGeometry x="400" y="920" width="160" height="50" as="geometry" />
        </mxCell>
        <mxCell id="3_1_JiswwGQ6XDFufu0A-61" value="&lt;font style=&quot;font-size: 16px;&quot; face=&quot;Georgia&quot;&gt;- q: Integer&lt;/font&gt;" style="text;strokeColor=none;fillColor=none;align=left;verticalAlign=middle;spacingLeft=4;spacingRight=4;overflow=hidden;points=[[0,0.5],[1,0.5]];portConstraint=eastwest;rotatable=0;whiteSpace=wrap;html=1;" vertex="1" parent="WIyWlLk6GJQsqaUBKTNV-1">
          <mxGeometry x="420" y="760" width="180" height="30" as="geometry" />
        </mxCell>
        <mxCell id="3_1_JiswwGQ6XDFufu0A-62" value="&lt;font face=&quot;Georgia&quot;&gt;implements&lt;/font&gt;" style="endArrow=block;dashed=1;endFill=0;endSize=12;html=1;rounded=0;exitX=0.5;exitY=1;exitDx=0;exitDy=0;entryX=0.5;entryY=0;entryDx=0;entryDy=0;" edge="1" parent="WIyWlLk6GJQsqaUBKTNV-1" source="3_1_JiswwGQ6XDFufu0A-45" target="3_1_JiswwGQ6XDFufu0A-54">
          <mxGeometry width="160" relative="1" as="geometry">
            <mxPoint x="892.5" y="530" as="sourcePoint" />
            <mxPoint x="1052.5" y="530" as="targetPoint" />
          </mxGeometry>
        </mxCell>
        <mxCell id="3_1_JiswwGQ6XDFufu0A-64" value="" style="endArrow=block;dashed=1;endFill=0;endSize=12;html=1;rounded=0;exitX=0.5;exitY=1;exitDx=0;exitDy=0;entryX=0.5;entryY=0;entryDx=0;entryDy=0;" edge="1" parent="WIyWlLk6GJQsqaUBKTNV-1" source="3_1_JiswwGQ6XDFufu0A-56" target="3_1_JiswwGQ6XDFufu0A-60">
          <mxGeometry width="160" relative="1" as="geometry">
            <mxPoint x="280" y="860" as="sourcePoint" />
            <mxPoint x="340" y="950" as="targetPoint" />
          </mxGeometry>
        </mxCell>
        <mxCell id="3_1_JiswwGQ6XDFufu0A-65" value="&lt;font face=&quot;Georgia&quot;&gt;implements&lt;/font&gt;" style="edgeLabel;html=1;align=center;verticalAlign=middle;resizable=0;points=[];" vertex="1" connectable="0" parent="3_1_JiswwGQ6XDFufu0A-64">
          <mxGeometry x="-0.1997" y="1" relative="1" as="geometry">
            <mxPoint as="offset" />
          </mxGeometry>
        </mxCell>
        <mxCell id="3_1_JiswwGQ6XDFufu0A-66" value="" style="endArrow=open;endFill=1;endSize=12;html=1;rounded=0;exitX=0;exitY=0.25;exitDx=0;exitDy=0;entryX=1;entryY=0.5;entryDx=0;entryDy=0;" edge="1" parent="WIyWlLk6GJQsqaUBKTNV-1" source="3_1_JiswwGQ6XDFufu0A-0" target="3_1_JiswwGQ6XDFufu0A-45">
          <mxGeometry width="160" relative="1" as="geometry">
            <mxPoint x="920" y="590" as="sourcePoint" />
            <mxPoint x="1080" y="590" as="targetPoint" />
          </mxGeometry>
        </mxCell>
        <mxCell id="3_1_JiswwGQ6XDFufu0A-67" value="" style="endArrow=open;endFill=1;endSize=12;html=1;rounded=0;exitX=0;exitY=0.75;exitDx=0;exitDy=0;entryX=0.968;entryY=0.045;entryDx=0;entryDy=0;entryPerimeter=0;" edge="1" parent="WIyWlLk6GJQsqaUBKTNV-1" source="3_1_JiswwGQ6XDFufu0A-0" target="3_1_JiswwGQ6XDFufu0A-56">
          <mxGeometry width="160" relative="1" as="geometry">
            <mxPoint x="740" y="740" as="sourcePoint" />
            <mxPoint x="460" y="642" as="targetPoint" />
          </mxGeometry>
        </mxCell>
        <mxCell id="3_1_JiswwGQ6XDFufu0A-68" value="" style="rounded=1;whiteSpace=wrap;html=1;" vertex="1" parent="WIyWlLk6GJQsqaUBKTNV-1">
          <mxGeometry x="780" y="850" width="230" height="150" as="geometry" />
        </mxCell>
        <mxCell id="3_1_JiswwGQ6XDFufu0A-69" value="VDFOutProof" style="text;html=1;strokeColor=none;fillColor=none;align=center;verticalAlign=middle;whiteSpace=wrap;rounded=0;fontFamily=Georgia;fontSize=20;" vertex="1" parent="WIyWlLk6GJQsqaUBKTNV-1">
          <mxGeometry x="815" y="850" width="160" height="50" as="geometry" />
        </mxCell>
        <mxCell id="3_1_JiswwGQ6XDFufu0A-70" value="&lt;font style=&quot;font-size: 16px;&quot; face=&quot;Georgia&quot;&gt;- y: Integer&lt;/font&gt;" style="text;strokeColor=none;fillColor=none;align=left;verticalAlign=middle;spacingLeft=4;spacingRight=4;overflow=hidden;points=[[0,0.5],[1,0.5]];portConstraint=eastwest;rotatable=0;whiteSpace=wrap;html=1;" vertex="1" parent="WIyWlLk6GJQsqaUBKTNV-1">
          <mxGeometry x="795" y="900" width="180" height="30" as="geometry" />
        </mxCell>
        <mxCell id="3_1_JiswwGQ6XDFufu0A-71" value="&lt;font style=&quot;font-size: 16px;&quot; face=&quot;Georgia&quot;&gt;- pi: Integer&lt;/font&gt;" style="text;strokeColor=none;fillColor=none;align=left;verticalAlign=middle;spacingLeft=4;spacingRight=4;overflow=hidden;points=[[0,0.5],[1,0.5]];portConstraint=eastwest;rotatable=0;whiteSpace=wrap;html=1;" vertex="1" parent="WIyWlLk6GJQsqaUBKTNV-1">
          <mxGeometry x="795" y="940" width="180" height="30" as="geometry" />
        </mxCell>
        <mxCell id="3_1_JiswwGQ6XDFufu0A-72" value="" style="rounded=1;whiteSpace=wrap;html=1;" vertex="1" parent="WIyWlLk6GJQsqaUBKTNV-1">
          <mxGeometry x="2110" y="510" width="480" height="320" as="geometry" />
        </mxCell>
        <mxCell id="3_1_JiswwGQ6XDFufu0A-73" value="VDFBoundary" style="text;html=1;strokeColor=none;fillColor=none;align=center;verticalAlign=middle;whiteSpace=wrap;rounded=0;fontFamily=Georgia;fontSize=20;" vertex="1" parent="WIyWlLk6GJQsqaUBKTNV-1">
          <mxGeometry x="2270" y="510" width="160" height="50" as="geometry" />
        </mxCell>
        <mxCell id="3_1_JiswwGQ6XDFufu0A-74" value="&lt;font style=&quot;font-size: 16px;&quot; face=&quot;Georgia&quot;&gt;- authenticatePeer(): bool&lt;/font&gt;" style="text;strokeColor=none;fillColor=none;align=left;verticalAlign=middle;spacingLeft=4;spacingRight=4;overflow=hidden;points=[[0,0.5],[1,0.5]];portConstraint=eastwest;rotatable=0;whiteSpace=wrap;html=1;" vertex="1" parent="WIyWlLk6GJQsqaUBKTNV-1">
          <mxGeometry x="2125" y="590" width="215" height="30" as="geometry" />
        </mxCell>
        <mxCell id="3_1_JiswwGQ6XDFufu0A-75" value="&lt;font style=&quot;font-size: 16px;&quot; face=&quot;Georgia&quot;&gt;- retrieveCommit(nonce): Commit&lt;/font&gt;" style="text;strokeColor=none;fillColor=none;align=left;verticalAlign=middle;spacingLeft=4;spacingRight=4;overflow=hidden;points=[[0,0.5],[1,0.5]];portConstraint=eastwest;rotatable=0;whiteSpace=wrap;html=1;" vertex="1" parent="WIyWlLk6GJQsqaUBKTNV-1">
          <mxGeometry x="2125" y="630" width="255" height="30" as="geometry" />
        </mxCell>
        <mxCell id="3_1_JiswwGQ6XDFufu0A-77" value="&lt;font style=&quot;font-size: 16px;&quot; face=&quot;Georgia&quot;&gt;- vdfTrapdoor(x): VDFOutProof&lt;/font&gt;" style="text;strokeColor=none;fillColor=none;align=left;verticalAlign=middle;spacingLeft=4;spacingRight=4;overflow=hidden;points=[[0,0.5],[1,0.5]];portConstraint=eastwest;rotatable=0;whiteSpace=wrap;html=1;" vertex="1" parent="WIyWlLk6GJQsqaUBKTNV-1">
          <mxGeometry x="2125" y="670" width="240" height="30" as="geometry" />
        </mxCell>
        <mxCell id="3_1_JiswwGQ6XDFufu0A-78" value="&lt;font style=&quot;font-size: 16px;&quot; face=&quot;Georgia&quot;&gt;- vdfEval(x): VDFOutProof&lt;/font&gt;" style="text;strokeColor=none;fillColor=none;align=left;verticalAlign=middle;spacingLeft=4;spacingRight=4;overflow=hidden;points=[[0,0.5],[1,0.5]];portConstraint=eastwest;rotatable=0;whiteSpace=wrap;html=1;" vertex="1" parent="WIyWlLk6GJQsqaUBKTNV-1">
          <mxGeometry x="2125" y="710" width="240" height="30" as="geometry" />
        </mxCell>
        <mxCell id="3_1_JiswwGQ6XDFufu0A-79" value="&lt;font style=&quot;font-size: 16px;&quot; face=&quot;Georgia&quot;&gt;- vdfVerify(x, y, proof): VDFOutProof&lt;/font&gt;" style="text;strokeColor=none;fillColor=none;align=left;verticalAlign=middle;spacingLeft=4;spacingRight=4;overflow=hidden;points=[[0,0.5],[1,0.5]];portConstraint=eastwest;rotatable=0;whiteSpace=wrap;html=1;" vertex="1" parent="WIyWlLk6GJQsqaUBKTNV-1">
          <mxGeometry x="2125" y="750" width="285" height="30" as="geometry" />
        </mxCell>
        <mxCell id="3_1_JiswwGQ6XDFufu0A-80" value="" style="endArrow=open;endFill=1;endSize=12;html=1;rounded=0;exitX=0.5;exitY=1;exitDx=0;exitDy=0;entryX=0.5;entryY=0;entryDx=0;entryDy=0;" edge="1" parent="WIyWlLk6GJQsqaUBKTNV-1" source="3_1_JiswwGQ6XDFufu0A-0" target="3_1_JiswwGQ6XDFufu0A-69">
          <mxGeometry width="160" relative="1" as="geometry">
            <mxPoint x="800" y="592" as="sourcePoint" />
            <mxPoint x="633" y="678" as="targetPoint" />
          </mxGeometry>
        </mxCell>
        <mxCell id="3_1_JiswwGQ6XDFufu0A-81" value="" style="endArrow=open;endFill=1;endSize=12;html=1;rounded=0;exitX=1;exitY=0.5;exitDx=0;exitDy=0;entryX=0;entryY=0.5;entryDx=0;entryDy=0;" edge="1" parent="WIyWlLk6GJQsqaUBKTNV-1" source="3_1_JiswwGQ6XDFufu0A-0" target="3_1_JiswwGQ6XDFufu0A-29">
          <mxGeometry width="160" relative="1" as="geometry">
            <mxPoint x="995" y="680" as="sourcePoint" />
            <mxPoint x="905" y="860" as="targetPoint" />
          </mxGeometry>
        </mxCell>
        <mxCell id="3_1_JiswwGQ6XDFufu0A-82" value="" style="endArrow=open;endFill=1;endSize=12;html=1;rounded=0;entryX=0.75;entryY=0;entryDx=0;entryDy=0;exitX=0.25;exitY=1;exitDx=0;exitDy=0;" edge="1" parent="WIyWlLk6GJQsqaUBKTNV-1" source="3_1_JiswwGQ6XDFufu0A-29" target="3_1_JiswwGQ6XDFufu0A-38">
          <mxGeometry width="160" relative="1" as="geometry">
            <mxPoint x="1625" y="680" as="sourcePoint" />
            <mxPoint x="905" y="860" as="targetPoint" />
          </mxGeometry>
        </mxCell>
      </root>
    </mxGraphModel>
  </diagram>
</mxfile>
